<svg xmlns="http://www.w3.org/2000/svg" xmlns:xlink="http://www.w3.org/1999/xlink" fill="none" version="1.1" width="26" height="26" viewBox="0 0 26 26"><g><path d="M23.4,0L2.6,0C1.17,0,0,1.17,0,2.6L0,26L5.2,20.8L23.4,20.8C24.83,20.8,26,19.63,26,18.2L26,2.6C26,1.17,24.83,0,23.4,0ZM23.4,18.2L4.121,18.2L2.6,19.721L2.6,2.6L23.4,2.6L23.4,18.2ZM11.7,3.9L14.3,3.9L14.3,11.7L11.7,11.7L11.7,3.9ZM11.7,14.3L14.3,14.3L14.3,16.9L11.7,16.9L11.7,14.3Z" fill="#737373" fill-opacity="1" style="mix-blend-mode:passthrough"/></g></svg>