<svg xmlns="http://www.w3.org/2000/svg" xmlns:xlink="http://www.w3.org/1999/xlink" fill="none" version="1.1" width="17.33333396911621" height="21.666667938232422" viewBox="0 0 17.33333396911621 21.666667938232422"><g><path d="M10.8333,0L2.16667,0C0.975,0,0.0108336,0.975,0.0108336,2.16667L0,19.5C0,20.6917,0.964167,21.6667,2.15583,21.6667L15.1667,21.6667C16.3583,21.6667,17.3333,20.6917,17.3333,19.5L17.3333,6.5L10.8333,0ZM15.1667,19.5L2.16667,19.5L2.16667,2.16667L9.75,2.16667L9.75,7.58333L15.1667,7.58333L15.1667,19.5ZM4.33333,14.0942L5.86083,15.6217L7.58333,13.91L7.58333,18.4167L9.75,18.4167L9.75,13.91L11.4725,15.6325L13,14.0942L8.6775,9.75L4.33333,14.0942Z" fill="#7C7C7C" fill-opacity="1" style="mix-blend-mode:passthrough"/></g></svg>