<svg xmlns="http://www.w3.org/2000/svg" xmlns:xlink="http://www.w3.org/1999/xlink" fill="none" version="1.1" width="23" height="22" viewBox="0 0 23 22"><defs><clipPath id="master_svg0_4_7323"><rect x="0" y="0" width="23" height="22" rx="0"/></clipPath></defs><g clip-path="url(#master_svg0_4_7323)"><g><path d="M21.53372824707031,4.76682609375C21.083328247070312,4.54682609375,20.613728247070313,4.363496093749999,20.12502824707031,4.2076660937499994L20.12502824707031,15.23519609375C19.032528247070314,14.85929609375,17.911228247070312,14.66679609375,16.770828247070312,14.66679609375C14.950028247070312,14.66679609375,13.148328247070312,15.16179609375,11.500028247070313,16.11519609375L11.500028247070313,5.02349609375C9.947498247070312,4.17099609375,8.155408247070312,3.66682609375,6.229158247070313,3.66682609375C4.513748247070312,3.66682609375,2.8941582470703127,4.07016609375,1.4662452470703125,4.76682609375C1.1499952470703125,4.91349609375,0.9583282470703125,5.23432609375,0.9583282470703125,5.57349609375L0.9583282470703125,16.64679609375C0.9583282470703125,17.17849609375,1.4087452470703126,17.55429609375,1.9166612470703126,17.55429609375C2.0699982470703127,17.55429609375,2.223328247070312,17.51769609375,2.3766582470703126,17.44429609375C3.5362482470703127,16.86679609375,4.839578247070312,16.50019609375,6.229158247070313,16.50019609375C8.212908247070313,16.50019609375,10.043328247070313,17.25179609375,11.500028247070313,18.33349609375C12.956628247070313,17.25179609375,14.787128247070312,16.50019609375,16.770828247070312,16.50019609375C18.160428247070314,16.50019609375,19.463728247070314,16.86679609375,20.62332824707031,17.45349609375C20.776628247070313,17.52679609375,20.93002824707031,17.56349609375,21.083328247070312,17.56349609375C21.581628247070313,17.56349609375,22.041628247070314,17.18769609375,22.041628247070314,16.65599609375L22.041628247070314,5.57349609375C22.041628247070314,5.23432609375,21.850028247070313,4.91349609375,21.53372824707031,4.76682609375ZM9.583328247070312,15.23519609375C8.490828247070311,14.85929609375,7.369578247070312,14.66679609375,6.229158247070313,14.66679609375C5.0887482470703125,14.66679609375,3.9674982470703126,14.85929609375,2.8749982470703124,15.23519609375L2.8749982470703124,6.15099609375C3.9387482470703126,5.72016609375,5.059998247070313,5.50016609375,6.229158247070313,5.50016609375C7.379158247070312,5.50016609375,8.519578247070314,5.72932609375,9.583328247070312,6.16016609375L9.583328247070312,15.23519609375ZM18.208328247070312,0.45849609375L13.416628247070312,5.04182609375L13.416628247070312,13.75019609375L18.208328247070312,9.62516609375L18.208328247070312,0.45849609375Z" fill="#FFFFFF" fill-opacity="1" style="mix-blend-mode:passthrough"/></g></g></svg>