<svg xmlns="http://www.w3.org/2000/svg" xmlns:xlink="http://www.w3.org/1999/xlink" fill="none" version="1.1" width="23.333341598510742" height="23.333332061767578" viewBox="0 0 23.333341598510742 23.333332061767578"><g><path d="M0.00000890096,11.6667C0.00000890096,5.22317,5.22318,0,11.6667,0C18.1102,0,23.3333,5.22317,23.3333,11.6667C23.3333,18.1102,18.1102,23.3333,11.6667,23.3333L0.00000890096,23.3333L3.41718,19.9162C1.22586,17.7305,-0.00393673,14.7616,0.00000890096,11.6667ZM5.63268,21L11.6667,21C16.8213,21,21,16.8213,21,11.6667C21,6.51201,16.8213,2.33333,11.6667,2.33333C6.51202,2.33333,2.33334,6.51201,2.33334,11.6667C2.33334,14.1773,3.32618,16.5258,5.06684,18.2665L6.71651,19.9162L5.63268,21ZM7.00001,12.8333L16.3333,12.8333C16.3333,15.4107,14.244,17.5,11.6667,17.5C9.08935,17.5,7.00001,15.4107,7.00001,12.8333Z" fill="#737373" fill-opacity="1" style="mix-blend-mode:passthrough"/></g></svg>