<svg xmlns="http://www.w3.org/2000/svg" xmlns:xlink="http://www.w3.org/1999/xlink" fill="none" version="1.1" width="19" height="19" viewBox="0 0 19 19"><g><path d="M7.48389,13.2894L8.97222,14.7778L14.25,9.5L8.97222,4.22222L7.48389,5.71056L10.2072,8.44444L0,8.44444L0,10.5556L10.2072,10.5556L7.48389,13.2894ZM16.8889,0L2.11111,0C0.945177,0,0,0.945177,0,2.11111L0,6.33333L2.11111,6.33333L2.11111,2.11111L16.8889,2.11111L16.8889,16.8889L2.11111,16.8889L2.11111,12.6667L0,12.6667L0,16.8889C0,18.0548,0.945177,19,2.11111,19L16.8889,19C18.05,19,19,18.05,19,16.8889L19,2.11111C19,0.95,18.05,0,16.8889,0Z" fill="#FFFFFF" fill-opacity="1" style="mix-blend-mode:passthrough"/></g></svg>