<svg xmlns="http://www.w3.org/2000/svg" xmlns:xlink="http://www.w3.org/1999/xlink" fill="none" version="1.1" width="147" height="40" viewBox="0 0 147 40"><g><g><path d="M45.15,15.1C43.536,6.32568,36.3515,-5.96046e-7,28,0C21.2567,0,15.4,4.1,12.4833,10.1C5.38226,10.9213,0,17.3455,0,25C0,33.275,6.27667,40,14,40L44.3333,40C50.7733,40,56,34.4,56,27.5C56,20.9,51.2167,15.55,45.15,15.1ZM44.3333,35L14,35C8.84333,35,4.66667,30.525,4.66667,25C4.66667,19.475,8.84333,15,14,15L15.6567,15C17.1967,9.225,22.12,5,28,5C35.0933,5,40.8333,11.15,40.8333,18.75L40.8333,20L44.3333,20C48.2067,20,51.3333,23.35,51.3333,27.5C51.3333,31.65,48.2067,35,44.3333,35Z" fill="#FFFFFF" fill-opacity="1" style="mix-blend-mode:passthrough"/></g><g><path d="M67.475,30.425C72.25,30.425,74.4,28.275,74.4,25.725C74.4,23.475,72.7,21.525,69,21.125L69,19.425L78.075,19.425L78.075,16.75L56.675,16.75L56.675,19.425L65.675,19.425L65.675,21.15C62.15,21.625,60.55,23.525,60.55,25.725C60.55,28.275,62.7,30.425,67.475,30.425ZM75.25,7.625L59.45,7.625L59.45,15.45L75.25,15.45L75.25,7.625ZM67.475,27.8C65.1,27.8,63.85,27,63.85,25.725C63.85,24.45,65.1,23.65,67.475,23.65C69.85,23.65,71.1,24.45,71.1,25.725C71.1,27,69.85,27.8,67.475,27.8ZM62.6,12.775L62.6,10.275L72.075,10.275L72.075,12.775L62.6,12.775ZM80.675,8.5L80.675,11.15L86.225,11.15C86.125,15.65,83.85,20,80.225,22.65L82.4,24.475C84.675,22.775,86.425,20.525,87.625,17.975L91.375,17.975L91.375,28.375L94.425,28.375L94.425,7.275L91.375,7.275L91.375,15.125L88.675,15.125C89.275,13.025,89.525,10.775,89.45,8.5L80.675,8.5ZM99.225,6.85L96.15,6.85L96.15,29.475L99.225,29.475L99.225,6.85ZM112.975,30.425C117.75,30.425,119.9,28.275,119.9,25.725C119.9,23.475,118.2,21.525,114.5,21.125L114.5,19.425L123.575,19.425L123.575,16.75L102.175,16.75L102.175,19.425L111.175,19.425L111.175,21.15C107.65,21.625,106.05,23.525,106.05,25.725C106.05,28.275,108.2,30.425,112.975,30.425ZM120.75,7.625L104.95,7.625L104.95,15.45L120.75,15.45L120.75,7.625ZM112.975,27.8C110.6,27.8,109.35,27,109.35,25.725C109.35,24.45,110.6,23.65,112.975,23.65C115.35,23.65,116.6,24.45,116.6,25.725C116.6,27,115.35,27.8,112.975,27.8ZM108.1,12.775L108.1,10.275L117.575,10.275L117.575,12.775L108.1,12.775ZM126.175,8.5L126.175,11.15L131.725,11.15C131.625,15.65,129.35,20,125.725,22.65L127.9,24.475C130.175,22.775,131.925,20.525,133.125,17.975L136.875,17.975L136.875,28.375L139.925,28.375L139.925,7.275L136.875,7.275L136.875,15.125L134.175,15.125C134.775,13.025,135.025,10.775,134.95,8.5L126.175,8.5ZM144.725,6.85L141.65,6.85L141.65,29.475L144.725,29.475L144.725,6.85Z" fill="#FFFFFF" fill-opacity="1"/></g></g></svg>