<svg xmlns="http://www.w3.org/2000/svg" xmlns:xlink="http://www.w3.org/1999/xlink" fill="none" version="1.1" width="19" height="18" viewBox="0 0 19 18"><g><path d="M17.1,0L1.9095,0C0.8645,0,0.00950022,0.871717,0.00950022,1.93715L0,17.0275C0,17.8896,1.026,18.3254,1.6245,17.7152L3.8,15.4972L17.1,15.4972C18.145,15.4972,19,14.6255,19,13.56L19,1.93715C19,0.871717,18.145,0,17.1,0ZM9.5,3.8743C10.545,3.8743,11.4,4.74602,11.4,5.81145C11.4,6.87688,10.545,7.7486,9.5,7.7486C8.455,7.7486,7.6,6.87688,7.6,5.81145C7.6,4.74602,8.455,3.8743,9.5,3.8743ZM13.3,11.6229L5.7,11.6229L5.7,11.0708C5.7,10.2863,6.156,9.58889,6.859,9.27894C8.54297,8.52963,10.457,8.52963,12.141,9.27894C12.8446,9.58555,13.3007,10.2907,13.3,11.0708L13.3,11.6229Z" fill="#FFFFFF" fill-opacity="1" style="mix-blend-mode:passthrough"/></g></svg>