<svg xmlns="http://www.w3.org/2000/svg" xmlns:xlink="http://www.w3.org/1999/xlink" fill="none" version="1.1" width="20" height="20" viewBox="0 0 20 20"><g><path d="M10,0C4.48,0,0,4.48,0,10C0,15.52,4.48,20,10,20C15.52,20,20,15.52,20,10C20,4.48,15.52,0,10,0ZM10,16.5C9.17,16.5,8.5,15.83,8.5,15L11.5,15C11.5,15.83,10.83,16.5,10,16.5ZM15,14L5,14L5,13L6,12L6,9.39C6,7.27,7.03,5.47,9,5L9,4.5C9,3.93,9.43,3.5,10,3.5C10.57,3.5,11,3.93,11,4.5L11,5C12.97,5.47,14,7.28,14,9.39L14,12L15,13L15,14Z" fill="#FFFFFF" fill-opacity="1" style="mix-blend-mode:passthrough"/></g></svg>