<svg xmlns="http://www.w3.org/2000/svg" xmlns:xlink="http://www.w3.org/1999/xlink" fill="none" version="1.1" width="27" height="27" viewBox="0 0 27 27"><g><path d="M13.5,0C6.048,0,0,6.048,0,13.5C0,20.952,6.048,27,13.5,27C20.952,27,27,20.952,27,13.5C27,6.048,20.952,0,13.5,0ZM13.5,22.275C12.3795,22.275,11.475,21.3705,11.475,20.25L15.525,20.25C15.525,21.3705,14.6205,22.275,13.5,22.275ZM20.25,18.9L6.75,18.9L6.75,17.55L8.1,16.2L8.1,12.6765C8.1,9.8145,9.4905,7.3845,12.15,6.75L12.15,6.075C12.15,5.3055,12.7305,4.725,13.5,4.725C14.2695,4.725,14.85,5.3055,14.85,6.075L14.85,6.75C17.5095,7.3845,18.9,9.828,18.9,12.6765L18.9,16.2L20.25,17.55L20.25,18.9Z" fill="#737373" fill-opacity="1" style="mix-blend-mode:passthrough"/></g></svg>