<svg xmlns="http://www.w3.org/2000/svg" xmlns:xlink="http://www.w3.org/1999/xlink" fill="none" version="1.1" width="15" height="15" viewBox="0 0 15 15"><g><path d="M10.7204,9.43396L10.0429,9.43396L9.80274,9.2024C10.6723,8.19384,11.1502,6.90626,11.1492,5.57461C11.1492,2.49584,8.65339,0,5.57462,0C2.49584,0,0.00000122685,2.49584,0.00000122685,5.57461C0.00000122685,8.65339,2.49584,11.1492,5.57462,11.1492C6.9554,11.1492,8.2247,10.6432,9.2024,9.80274L9.43396,10.0429L9.43396,10.7204L13.7221,15L15,13.7221L10.7204,9.43396ZM5.57462,9.43396C3.43911,9.43396,1.71527,7.71012,1.71527,5.57461C1.71527,3.43911,3.43911,1.71527,5.57462,1.71527C7.71012,1.71527,9.43396,3.43911,9.43396,5.57461C9.43396,7.71012,7.71012,9.43396,5.57462,9.43396Z" fill="#848484" fill-opacity="1" style="mix-blend-mode:passthrough"/></g></svg>