<svg xmlns="http://www.w3.org/2000/svg" xmlns:xlink="http://www.w3.org/1999/xlink" fill="none" version="1.1" width="19" height="20" viewBox="0 0 19 20"><g><path d="M17.2135,8.21111L18.3647,7.03333C19.2118,6.16667,19.2118,4.75556,18.3647,3.88889L16.8334,2.32222C15.9863,1.45556,14.607,1.45556,13.7599,2.32222L12.6087,3.5L17.2135,8.21111ZM11.0666,5.06667L1.08602,15.2889L1.08602,20L5.69077,20L15.6713,9.78889L11.0666,5.06667ZM17.3764,16.1111C17.3764,18.5444,14.6179,20,11.9463,20C11.349,20,10.8602,19.5,10.8602,18.8889C10.8602,18.2778,11.349,17.7778,11.9463,17.7778C13.6187,17.7778,15.2043,16.9667,15.2043,16.1111C15.2043,15.5889,14.6831,15.1444,13.8685,14.7778L15.4758,13.1333C16.6379,13.8333,17.3764,14.7667,17.3764,16.1111ZM1.71592,11.5C0.662475,10.8778,0,10.0667,0,8.88889C0,6.88889,2.05259,5.96667,3.86625,5.15556C4.98485,4.64444,6.51615,3.95556,6.51615,3.33333C6.51615,2.87778,5.66905,2.22222,4.3441,2.22222C2.97571,2.22222,2.38925,2.9,2.35667,2.93333C1.97657,3.38889,1.29237,3.44444,0.836239,3.06667C0.38324,2.68602,0.310852,2.00467,0.673335,1.53333C0.792798,1.37778,1.9114,0,4.3441,0C6.77679,0,8.6882,1.46667,8.6882,3.33333C8.6882,5.41111,6.59217,6.35556,4.73507,7.18889C3.7142,7.64445,2.17205,8.33333,2.17205,8.88889C2.17205,9.23333,2.63904,9.55556,3.3341,9.84444L1.71592,11.5Z" fill="#FFFFFF" fill-opacity="1" style="mix-blend-mode:passthrough"/></g></svg>