<svg xmlns="http://www.w3.org/2000/svg" xmlns:xlink="http://www.w3.org/1999/xlink" fill="none" version="1.1" width="25.833330154418945" height="25.833330154418945" viewBox="0 0 25.833330154418945 25.833330154418945"><g><path d="M6.45833,2.58333L6.45833,0L19.375,0L19.375,2.58333L25.8333,2.58333L25.8333,5.16667L23.25,5.16667L23.25,24.5417C23.25,25.255,22.6717,25.8333,21.9583,25.8333L3.875,25.8333C3.16163,25.8333,2.58333,25.255,2.58333,24.5417L2.58333,5.16667L0,5.16667L0,2.58333L6.45833,2.58333ZM5.16667,5.16667L5.16667,23.25L20.6667,23.25L20.6667,5.16667L5.16667,5.16667ZM9.04167,9.04167L11.625,9.04167L11.625,19.375L9.04167,19.375L9.04167,9.04167ZM14.2083,9.04167L16.7917,9.04167L16.7917,19.375L14.2083,19.375L14.2083,9.04167Z" fill="#7C7C7C" fill-opacity="1" style="mix-blend-mode:passthrough"/></g></svg>